# xmcd
#
# Track frame offsets:
#	150
#	23507
#	44715
#	61979
#	81316
#	96573
#	113978
#	135704
#	157599
#	175936
#	193183
#	193794
#
# Disc length: 2732 seconds
#
# Revision: 0
# Processed by: cddbd v1.4PL0 Copyright (c) Steve Scherf et al.
# Submitted via: dBpowerAMP V4.0
#
DISCID=a50aaa0c
DTITLE=Renaud - A La belle de Mai
DYEAR=1900
DGENRE=
TTITLE0=La Ballade de Willy Brouillard
TTITLE1=A La Belle de Mai
TTITLE2=C'est quand Qu'on Va Où
TTITLE3=Sirop De La Rue
TTITLE4=Devant Les Lavabos
TTITLE5=Cheveu Blanc
TTITLE6=Le Petit Chat Est Mort
TTITLE7=Adios Zapata!
TTITLE8=Son Bleu
TTITLE9=Mon Amoureux
TTITLE10=Lolita Lolita
TTITLE11=La Médaille
EXTD=
EXTT0=
EXTT1=
EXTT2=
EXTT3=
EXTT4=
EXTT5=
EXTT6=
EXTT7=
EXTT8=
EXTT9=
EXTT10=
EXTT11=
PLAYORDER=
